<svg width="12" height="10" viewBox="0 0 12 10" fill="none" xmlns="http://www.w3.org/2000/svg">
<path fill-rule="evenodd" clip-rule="evenodd" d="M7.48438 8.5253C9.74844 8.01819 11.4062 6.38004 11.4062 4.4375C11.4062 2.09029 8.98579 0.1875 6 0.1875C3.01421 0.1875 0.59375 2.09029 0.59375 4.4375C0.59375 6.38004 2.25156 8.01819 4.51562 8.5253L4.44893 9.61522C4.44062 9.751 4.58586 9.84216 4.70452 9.77565L6.71094 8.65108C6.97524 8.62379 7.23353 8.58149 7.48438 8.5253ZM3.40625 5.3125C3.8895 5.3125 4.28125 4.92075 4.28125 4.4375C4.28125 3.95425 3.8895 3.5625 3.40625 3.5625C2.923 3.5625 2.53125 3.95425 2.53125 4.4375C2.53125 4.92075 2.923 5.3125 3.40625 5.3125ZM9.28125 4.4375C9.28125 4.92075 8.8895 5.3125 8.40625 5.3125C7.923 5.3125 7.53125 4.92075 7.53125 4.4375C7.53125 3.95425 7.923 3.5625 8.40625 3.5625C8.8895 3.5625 9.28125 3.95425 9.28125 4.4375ZM5.90625 5.3125C6.3895 5.3125 6.78125 4.92075 6.78125 4.4375C6.78125 3.95425 6.3895 3.5625 5.90625 3.5625C5.423 3.5625 5.03125 3.95425 5.03125 4.4375C5.03125 4.92075 5.423 5.3125 5.90625 5.3125Z" fill="black" fill-opacity="0.38"/>
</svg>
