<svg width="28" height="27" viewBox="0 0 28 27" fill="none" xmlns="http://www.w3.org/2000/svg">
<path d="M27.1416 13.2822L15.4392 1.59577L14.6548 0.812036C14.2823 0.442863 13.6826 0.442863 13.3101 0.812036L0.823311 13.2822C0.450797 13.6544 0.250912 14.1476 0.25394 14.6742C0.266054 15.7393 1.15342 16.5896 2.21948 16.5896H3.43631C3.47514 16.5896 3.50662 16.6211 3.50662 16.6599V25.0039C3.50662 25.8 4.15196 26.4453 4.94803 26.4453H23.0169C23.8129 26.4453 24.4583 25.8 24.4583 25.0039V16.6599C24.4583 16.6211 24.4897 16.5896 24.5286 16.5896H25.7727C26.2905 16.5896 26.7781 16.3869 27.1446 16.0207C27.5111 15.6546 27.7109 15.1674 27.7109 14.65C27.7109 14.1355 27.508 13.6483 27.1416 13.2822ZM15.6784 24.2666H12.2864V18.0935H15.6784V24.2666ZM23.3324 14.4109C22.7499 14.4109 22.2777 14.8831 22.2777 15.4656V24.2666H17.6167V17.3673C17.6167 16.6986 17.0746 16.1569 16.4053 16.1569H11.5596C10.8903 16.1569 10.3482 16.6986 10.3482 17.3673V24.2666H5.68719V15.4656C5.68719 14.8831 5.21499 14.4109 4.6325 14.4109H2.77977L13.9855 3.22376L14.6851 3.92277L25.1881 14.4109H23.3324Z" fill="black" fill-opacity="0.54"/>
</svg>
