<svg width="24" height="24" viewBox="0 0 24 24" fill="none" xmlns="http://www.w3.org/2000/svg">
<mask id="mask0" mask-type="alpha" maskUnits="userSpaceOnUse" x="4" y="4" width="16" height="16">
<path d="M19.9996 4.49571H4.0001V19.3585H19.9996V4.49571Z" fill="white"/>
</mask>
<g mask="url(#mask0)">
<path fill-rule="evenodd" clip-rule="evenodd" d="M18.7325 6.56879C17.6275 5.23467 16.0425 4.4984 14.2685 4.49532L7.26633 4.49584L4.0001 19.3546L10.3225 19.3582L11.155 15.8871L13.7773 15.8876H13.8377C15.8315 15.8876 17.4728 15.1985 18.5793 13.8992C20.6268 11.6673 20.2652 8.41973 18.7325 6.56879Z" fill="#FEFEFE"/>
</g>
<path fill-rule="evenodd" clip-rule="evenodd" d="M18.5355 6.73278C17.4828 5.46173 15.967 4.75468 14.2683 4.75212L7.47204 4.75263L4.31902 19.0982L10.1205 19.1023L10.9529 15.6306C11.7321 15.6306 13.7811 15.6311 13.7786 15.6311C15.7226 15.645 17.3168 14.9866 18.3905 13.7259C20.3402 11.6011 19.9975 8.49861 18.5355 6.73278Z" fill="#B3B1B1"/>
<path fill-rule="evenodd" clip-rule="evenodd" d="M10.6561 15.2525L9.82366 18.7236L4.78805 18.7257L7.77612 5.13025L14.2671 5.13487C15.8833 5.13743 17.268 5.79372 18.2449 6.97402C19.6848 8.71267 19.8252 11.6029 18.103 13.481C17.0467 14.7208 15.4981 15.2653 13.782 15.253L10.6561 15.2525Z" fill="#081E3F"/>
<path fill-rule="evenodd" clip-rule="evenodd" d="M7.107 8.15037L9.95215 8.15293C10.279 8.15293 10.6268 8.42724 10.4757 8.84306C10.383 9.09994 10.3112 9.39783 10.2785 9.67726C10.2523 9.89569 10.4962 10.0336 10.6355 10.0336L16.4344 10.0377C16.5435 10.0377 16.6009 10.0069 16.6009 9.95465C16.6009 9.90286 16.5958 9.71059 16.5753 9.57574C16.5548 9.44705 16.5338 9.425 16.4298 9.425C15.707 9.42398 15.4124 9.10199 14.6548 8.61285C13.8971 8.1237 12.786 7.84273 11.8312 7.84171L7.17616 7.83914L7.107 8.15037Z" fill="#FCB424"/>
<path fill-rule="evenodd" clip-rule="evenodd" d="M10.6197 11.909C10.5193 11.6942 10.4266 11.4383 10.3697 11.203C10.298 10.9015 10.0434 10.6564 9.60796 10.6564L6.55586 10.6544L6.63167 10.3119L16.5221 10.3185C16.6209 10.3185 16.5999 10.3601 16.5948 10.4693C16.5892 10.5785 16.5641 10.781 16.5482 10.9005C16.5323 11.0194 16.4339 10.9912 16.3397 10.9933C16.1174 10.9984 15.7035 11.0512 15.4622 11.2322C15.0524 11.5404 14.1784 12.0818 13.6872 12.2392C13.16 12.4074 11.1904 13.0103 10.6135 11.8993" fill="#FCB424"/>
<path fill-rule="evenodd" clip-rule="evenodd" d="M6.00906 13.1481L11.1738 13.1516C11.4017 13.1516 11.5979 13.206 11.7501 13.3326C12.1865 13.6931 12.7526 13.9546 13.353 14.1284C13.6224 14.2063 14.086 14.1058 14.5004 13.871C15.5342 13.286 16.1991 12.1729 16.4179 11.4561C16.4747 11.2689 16.3656 11.2843 16.2211 11.2946C15.7852 11.3258 15.3272 11.7201 14.7253 12.1047C14.1224 12.4882 12.897 12.8517 11.7342 12.8502L6.07514 12.8466L6.00906 13.1481Z" fill="#FCB424"/>
<path fill-rule="evenodd" clip-rule="evenodd" d="M13.5854 6.22518C13.6581 6.21237 13.9194 6.19647 14.0649 6.25338C15.0459 6.63998 15.9741 7.66287 16.3624 8.74933C16.4372 8.95801 16.4556 9.09184 16.3624 9.1026C15.9126 9.15234 15.7026 8.93033 15.1739 8.57142C14.6448 8.21302 14.1571 7.96794 13.487 7.75465C12.8267 7.54443 11.6239 7.51418 11.4682 7.50905C11.313 7.50392 11.3324 7.43881 11.4006 7.37113C11.9769 6.79534 12.7514 6.37746 13.5854 6.22518Z" fill="#FCB424"/>
<path fill-rule="evenodd" clip-rule="evenodd" d="M18.2925 9.95045C18.2956 9.99198 18.2511 10.0391 18.1988 10.0391C18.1942 10.0391 17.0677 10.0381 17.0677 10.0381C16.9227 10.0381 16.9202 9.97044 16.9151 9.88738C16.9094 9.80432 16.8864 9.6382 16.8812 9.53924C16.8761 9.44336 16.8413 9.33364 16.9694 9.2798C17.2844 9.14649 17.582 8.83834 17.7178 8.57378C17.7634 8.48456 17.8315 8.3369 17.9089 8.462C18.1768 8.89064 18.2608 9.41926 18.2925 9.95045Z" fill="#FCB424"/>
<path fill-rule="evenodd" clip-rule="evenodd" d="M17.8876 11.985C17.8681 12.0234 17.7959 12.0516 17.7723 11.9896C17.6074 11.5476 17.215 11.2436 16.945 11.0928C16.8635 11.0472 16.8564 10.9939 16.8666 10.9134C16.8779 10.8329 16.9117 10.5755 16.9168 10.4668C16.9209 10.3807 16.9558 10.3186 17.0203 10.3186L18.199 10.3191C18.241 10.3197 18.2933 10.3571 18.2933 10.3884C18.2933 10.9508 18.1222 11.5066 17.8876 11.985Z" fill="#FCB424"/>
<path fill-rule="evenodd" clip-rule="evenodd" d="M14.8219 14.1992C14.7389 14.211 14.5575 14.1823 14.8434 14.0167C15.6999 13.5183 16.4632 12.3488 16.6671 11.6771C16.7444 11.4207 16.7526 11.4074 16.851 11.4356C16.9821 11.473 17.1885 11.6515 17.3463 11.8699C17.5051 12.0878 17.5733 12.5128 17.4821 12.6349C16.8663 13.4619 15.8879 14.0428 14.8219 14.1992Z" fill="#FCB424"/>
<path fill-rule="evenodd" clip-rule="evenodd" d="M17.0011 8.90566C16.8019 9.01282 16.7629 8.99282 16.7204 8.84311C16.3485 7.53617 15.2507 6.56865 14.802 6.28255C14.7164 6.22872 14.7385 6.19231 14.8004 6.20052C15.8747 6.34357 16.9274 6.93013 17.4576 7.73305C17.7598 8.19348 17.1933 8.80158 17.0011 8.90566Z" fill="#FCB424"/>
</svg>
