<svg width="24" height="24" viewBox="0 0 24 24" fill="none" xmlns="http://www.w3.org/2000/svg">
<mask id="mask0" mask-type="alpha" maskUnits="userSpaceOnUse" x="4" y="4" width="16" height="17">
<path d="M19.9691 4.0371H4V20.04H19.9691V4.0371Z" fill="white"/>
</mask>
<g mask="url(#mask0)">
<path fill-rule="evenodd" clip-rule="evenodd" d="M11.9847 4.03701C7.582 4.03701 3.99986 7.62663 3.99986 12.0389C3.99986 16.4508 7.582 20.04 11.9847 20.04C16.3874 20.04 19.9691 16.4508 19.9691 12.0389C19.9691 7.62663 16.3874 4.03701 11.9847 4.03701Z" fill="#FEFEFE"/>
</g>
<path fill-rule="evenodd" clip-rule="evenodd" d="M11.9848 4.2564C7.69466 4.2564 4.21892 7.74159 4.21892 12.0389C4.21892 16.3363 7.69466 19.8206 11.9848 19.8206C16.2737 19.8206 19.7503 16.3363 19.7503 12.0389C19.7503 7.74159 16.2737 4.2564 11.9848 4.2564Z" fill="#0F4B90"/>
<path fill-rule="evenodd" clip-rule="evenodd" d="M17.9369 14.8528C16.7555 14.5877 15.6613 14.1823 14.663 13.7014C14.5093 13.6268 14.3578 13.5505 14.2085 13.4728C13.4777 13.0933 12.8038 12.676 12.1908 12.2495C12.0674 12.1631 11.9456 12.0766 11.8278 11.9902C11.82 11.9849 11.813 11.9792 11.8059 11.9744C11.6483 11.859 11.4964 11.7436 11.3479 11.6282C11.1062 11.44 10.8764 11.253 10.6592 11.0688C10.4074 10.8551 10.1727 10.6453 9.95599 10.4435C9.76508 10.2662 9.58731 10.0947 9.42399 9.93146C9.38896 9.89724 9.35612 9.86345 9.32284 9.82966C9.06538 9.56859 8.84295 9.32946 8.66167 9.12675C8.65642 8.9723 8.65248 8.83716 8.64898 8.71913C8.63978 8.42383 8.6354 8.25139 8.6354 8.25139L8.42742 8.15706L8.28292 8.28342L8.23388 8.32598C8.23388 8.32598 8.23607 8.44007 8.24045 8.63664C8.19579 8.58179 8.16164 8.53879 8.1323 8.50237C8.13055 8.33651 8.12967 8.20883 8.1288 8.12415C8.12792 8.04868 8.12792 8.007 8.12792 8.007H7.83981L7.83456 8.17856L7.66116 8.22156C7.66116 8.22156 7.65416 8.58574 7.64365 9.16624C7.23031 10.1127 6.7977 10.8634 6.40713 11.4439C6.20922 11.7379 6.02181 11.9876 5.85368 12.1964C5.65883 12.4373 5.4885 12.6247 5.3567 12.7594C5.33218 12.5896 5.31511 12.4176 5.30372 12.2442C5.29321 12.0942 5.28665 11.9432 5.28665 11.7905C5.28665 11.637 5.29321 11.4856 5.30372 11.3342C5.40793 9.78184 6.03714 8.37381 7.01795 7.28872C7.23075 7.0531 7.46106 6.8324 7.70495 6.62924C8.76063 5.7495 10.0908 5.19006 11.5476 5.09704C11.6912 5.08783 11.8348 5.08125 11.9807 5.08125C12.1501 5.08125 12.3174 5.09002 12.4838 5.10231C13.9493 5.21112 15.2817 5.7925 16.333 6.69506C16.5668 6.89558 16.7862 7.11146 16.9902 7.34181C17.9312 8.4054 18.5394 9.77043 18.6536 11.2737C18.6668 11.4448 18.6751 11.6168 18.6751 11.7905C18.6751 11.9165 18.6707 12.0411 18.6642 12.1648C18.6107 13.1292 18.3542 14.0393 17.9369 14.8528ZM5.51258 13.522C5.48587 13.4215 5.46179 13.3201 5.4399 13.2183C5.50995 13.12 5.58833 13.0081 5.67678 12.88L5.51258 13.522ZM6.21272 12.1688L5.81777 14.414C5.74158 14.2336 5.67328 14.0485 5.61285 13.8602L5.90928 12.5334C5.98372 12.4211 6.06297 12.2995 6.14266 12.174C6.17463 12.1245 6.20571 12.0762 6.23812 12.0244L6.21272 12.1688ZM7.47463 10.3553L7.27059 11.5067L7.16463 12.1082L6.53192 15.686C6.43559 15.5513 6.3432 15.4144 6.25738 15.2727L6.8139 12.1288L6.92862 11.4838L7.02495 10.9367L7.09282 10.5545C7.28198 10.1991 7.46544 9.82703 7.63533 9.44661L7.47463 10.3553ZM10.5948 11.6247L10.7087 11.9849L11.7608 15.3113C11.6164 15.3209 11.4749 15.3301 11.3344 15.3402L10.2835 11.9919L10.1666 11.619L10.1141 11.4514L9.7537 10.304C9.82682 10.3759 9.89951 10.4457 9.97175 10.5155C10.1027 10.641 10.2323 10.7643 10.3597 10.8832L10.5948 11.6247ZM11.1531 11.6282L11.2639 11.9779L11.8112 13.7058L12.3091 15.2757L12.3095 15.2784H12.3091C12.1733 15.2858 12.0389 15.2937 11.9062 15.3021L11.7832 14.9111L10.8602 11.9823L10.7476 11.626L10.5756 11.0802C10.7656 11.253 10.953 11.4193 11.1369 11.5786L11.1531 11.6282ZM13.4716 15.2231C13.3315 15.2283 13.1927 15.2345 13.0547 15.2406L12.1965 12.5136L12.1698 12.4294C12.1781 12.4364 12.1864 12.4417 12.1948 12.4483C12.3708 12.5856 12.5433 12.7164 12.7128 12.8414L13.4716 15.2231ZM14.6472 15.1897C14.4962 15.1928 14.3455 15.1959 14.1962 15.1998L13.659 13.5048C13.8604 13.6378 14.0539 13.7615 14.2418 13.8765L14.6472 15.1897ZM15.8119 14.7303C16.326 14.9721 16.7144 15.1156 16.9517 15.1928C16.6172 15.1849 16.2848 15.1805 15.9542 15.1788L15.8119 14.7303ZM15.1166 14.3798C15.3005 14.4789 15.4739 14.5671 15.6359 14.6461L15.8045 15.1788C15.7537 15.1788 15.7033 15.1792 15.6526 15.1792C15.5571 15.1792 15.4616 15.1792 15.3666 15.1796L15.1915 14.6198L15.1166 14.3798ZM14.4261 13.9875C14.603 14.0937 14.7742 14.192 14.9367 14.2819L15.2182 15.1814C15.1411 15.1823 15.0649 15.1836 14.9874 15.1845C14.924 15.1853 14.86 15.1858 14.7965 15.1867L14.5395 14.3556L14.4261 13.9875ZM13.4746 13.3811C13.483 13.3859 13.49 13.3916 13.4983 13.3969L13.4777 13.3908L14.0495 15.2038C13.9046 15.2082 13.761 15.213 13.6183 15.2178L12.9203 12.9941C13.1099 13.131 13.2938 13.2587 13.4738 13.3802L13.4768 13.3903L13.4777 13.3908L13.4746 13.3811ZM11.3339 11.748C11.4259 11.8261 11.5161 11.9011 11.6058 11.9753C11.6803 12.0367 11.7538 12.0964 11.8274 12.1556C11.8721 12.1916 11.9172 12.2293 11.9618 12.2644L12.2097 13.0459L12.9085 15.2468C12.7557 15.2538 12.6046 15.2621 12.4553 15.27L12.2775 14.7106L11.8178 13.2688L11.4066 11.9766L11.3339 11.748ZM15.8934 16.3828C15.1074 16.3441 13.9607 16.3112 12.3774 16.3126C12.1698 16.313 11.9548 16.3139 11.732 16.3152C11.2306 16.3187 10.6951 16.3248 10.1136 16.3358C10.6588 16.3108 11.2021 16.2924 11.7333 16.2792C11.9496 16.2735 12.1628 16.2691 12.3734 16.2652C13.6752 16.2406 14.8718 16.2445 15.7826 16.2555C16.2621 16.2612 16.6627 16.2696 16.9591 16.2761C16.9092 16.3314 16.8575 16.3854 16.8059 16.4389C16.5821 16.4218 16.2804 16.4016 15.8934 16.3828ZM9.02904 16.5732C9.80755 16.5556 10.7419 16.5429 11.7214 16.5447C11.9448 16.5451 12.1694 16.5464 12.3949 16.5486C13.7085 16.5613 15.0557 16.6043 16.1898 16.7048C16.2962 16.7145 16.4039 16.7237 16.5064 16.7342C16.4565 16.7807 16.4044 16.8246 16.3527 16.8694C15.1797 17.8847 13.6524 18.5003 11.9807 18.5003C10.9731 18.5003 10.0182 18.2756 9.16083 17.8759C9.11398 17.5166 9.06976 17.0734 9.02904 16.5732ZM8.54564 17.5495C8.49354 17.5187 8.44274 17.4858 8.39195 17.4534C8.37356 17.1879 8.35649 16.8979 8.34028 16.5903C8.38932 16.5885 8.44055 16.5877 8.49091 16.5859C8.5093 16.9637 8.52725 17.2906 8.54564 17.5495ZM8.89812 14.6443C8.87316 14.2183 8.85039 13.783 8.82894 13.3478L9.12668 14.2881L9.30839 14.8598L9.50937 15.4929C9.31671 15.5118 9.13237 15.5307 8.95373 15.5495C8.9511 15.5149 8.94935 15.4793 8.94672 15.4447C8.93008 15.1836 8.91388 14.9164 8.89812 14.6443ZM8.75012 11.5813C8.74662 11.4904 8.74268 11.3961 8.73874 11.307L8.82587 11.5843L8.96424 12.027L9.4704 13.6422L9.64073 14.1871L10.0344 15.4442C9.90563 15.4556 9.77866 15.4675 9.65474 15.4793L9.40516 14.6843L9.22651 14.1165L8.80091 12.7594C8.78997 12.5145 8.77902 12.2723 8.76895 12.0341C8.76238 11.8796 8.75625 11.7313 8.75012 11.5813ZM7.18652 15.7593L7.57885 13.5386C7.57053 14.3188 7.56571 15.0717 7.56615 15.7101C7.42953 15.7272 7.30431 15.7435 7.18652 15.7593ZM7.57534 16.8404C7.49434 16.7693 7.41509 16.6969 7.33802 16.6215C7.40808 16.6193 7.4847 16.6166 7.57184 16.6136C7.57271 16.6939 7.57403 16.7693 7.57534 16.8404ZM7.41377 11.5159L7.62307 10.3303C7.61694 10.7033 7.61037 11.1069 7.60424 11.5268C7.60161 11.7103 7.59899 11.8967 7.5968 12.085C7.59329 12.3197 7.59023 12.5566 7.58716 12.7945L7.56746 12.791L7.03809 15.7794C6.89009 15.7996 6.76092 15.8181 6.64883 15.8339L7.31 12.0999L7.41377 11.5159ZM8.92964 9.47075C9.01722 9.56289 9.10566 9.65372 9.1928 9.74366C9.28606 9.83932 9.37801 9.93322 9.46996 10.0249C9.48135 10.0368 9.49405 10.0495 9.50543 10.0609L9.55141 10.2061L9.822 11.056L10.0002 11.6164L10.1206 11.9955L10.1254 12.0108L11.1881 15.3508C11.0489 15.3609 10.9118 15.3714 10.7765 15.3815L10.0204 12.9612L9.85046 12.4189L9.7213 12.0047L9.59782 11.6076L9.00145 9.69979L8.92964 9.47075ZM8.66299 9.18949C8.67481 9.20178 8.68576 9.21319 8.69714 9.22503L8.83419 9.66161L9.44325 11.6041L9.57067 12.0086L9.79223 12.7164L9.95818 13.2446L10.6325 15.3933C10.4784 15.4056 10.3277 15.4183 10.1793 15.4311L9.72786 13.9748L9.56016 13.4355L9.12143 12.0218L8.987 11.59L8.71641 10.7164C8.70152 10.3163 8.68838 9.95077 8.67787 9.62607C8.67262 9.47075 8.66737 9.32244 8.66299 9.18949ZM8.13405 8.61206C8.17039 8.65287 8.20674 8.69148 8.24264 8.73185C8.24877 8.97098 8.25709 9.30708 8.26672 9.70944C8.2803 10.2347 8.29694 10.8735 8.3162 11.5633C8.32058 11.7234 8.32496 11.8862 8.32978 12.0512C8.35999 13.0915 8.39545 14.2082 8.43267 15.2007C8.43749 15.3376 8.44274 15.4727 8.448 15.6044C8.39589 15.6105 8.34641 15.6162 8.29562 15.6219C8.29212 15.5324 8.28905 15.4398 8.28511 15.349C8.24439 14.2894 8.2133 13.1336 8.18966 12.0569C8.18616 11.888 8.18309 11.7212 8.17959 11.5571C8.16645 10.9064 8.15682 10.3 8.14894 9.77701C8.14193 9.31191 8.13756 8.91087 8.13405 8.61206ZM6.58359 11.458C6.68167 11.2921 6.78106 11.1227 6.88002 10.945L6.83974 11.1776L6.78763 11.4738L6.6716 12.1376L6.15536 15.095C6.06866 14.9423 5.98766 14.7861 5.91322 14.6259L6.34846 12.1596L6.42596 11.7208C6.44479 11.6905 6.46405 11.6572 6.48244 11.6269C6.51616 11.5712 6.54987 11.515 6.58359 11.458ZM11.9807 4.63326C8.03466 4.63326 4.83565 7.83763 4.83565 11.7923C4.83565 15.7474 8.03466 18.9518 11.9807 18.9518C13.9869 18.9518 15.7984 18.1225 17.0962 16.7882C17.14 16.7649 17.1921 16.7017 17.238 16.639C18.4089 15.3639 19.1243 13.6628 19.1243 11.7923C19.1243 7.83763 15.9267 4.63326 11.9807 4.63326Z" fill="#FEC42F"/>
<path fill-rule="evenodd" clip-rule="evenodd" d="M5.28667 11.7908C5.28667 11.9434 5.29324 12.0944 5.30375 12.244C5.3992 12.2348 5.58486 12.2177 5.8537 12.1962C6.02184 11.9878 6.20925 11.7381 6.40716 11.4437C5.81036 11.3945 5.4338 11.3502 5.30375 11.3344C5.29324 11.4854 5.28667 11.6372 5.28667 11.7908ZM18.6751 11.7908C18.6751 11.6166 18.6668 11.4446 18.6537 11.2739C17.0586 11.4244 15.5729 11.5174 14.2147 11.5701C14.2834 10.5214 14.7882 9.57626 15.5024 8.65966C16.0795 7.91726 16.6872 7.51358 16.9902 7.34202C16.7862 7.11123 16.5668 6.89535 16.333 6.69483C15.8111 7.21127 14.1056 9.08352 13.9843 11.5797C13.3543 11.6021 12.7535 11.6157 12.1825 11.6227C12.1479 7.73209 12.4531 5.332 12.4838 5.10208C12.3174 5.08979 12.1506 5.08146 11.9807 5.08146C11.8349 5.08146 11.6913 5.08804 11.5476 5.09681C11.5805 5.40966 11.8152 7.79659 11.8266 11.6262C11.665 11.6271 11.5052 11.628 11.348 11.628C11.4964 11.7434 11.6483 11.8588 11.806 11.9742H11.8279V11.99C11.9457 12.0768 12.0674 12.1633 12.1909 12.2493C12.1895 12.1563 12.1882 12.0646 12.1865 11.9733C12.7553 11.9733 13.3529 11.9772 13.9795 11.9878C13.9896 12.4643 14.0596 12.961 14.2085 13.473C14.3578 13.5507 14.5093 13.627 14.663 13.7016C14.378 13.0965 14.2352 12.5301 14.2103 11.9922C15.5725 12.0176 17.0638 12.0711 18.6642 12.1646C18.6708 12.0409 18.6751 11.9167 18.6751 11.7908ZM7.70498 6.62901C7.46109 6.8326 7.23077 7.05287 7.01797 7.28893C7.19093 7.37888 7.57318 7.60178 8.00754 8.0072H8.12795C8.12795 8.0072 8.12795 8.04845 8.12883 8.12392C8.17962 8.17482 8.23129 8.22747 8.28295 8.28319L8.42745 8.15726L8.63543 8.25116C8.63543 8.25116 8.63981 8.42404 8.64901 8.71933C8.94938 9.11072 9.21078 9.50781 9.41614 9.91587L9.94639 10.4082C9.44547 8.3964 8.05833 6.96731 7.70498 6.62901Z" fill="#FEFEFE"/>
</svg>
